# xmcd
#
# Track frame offsets: 
#        150
#        18229
#        40582
#        56314
#        71759
#        90162
#        105294
#        125047
#        145629
#        162882
#        172180
#        181967
#        195441
#        211259
#        233909
#
# Disc length: 3328 seconds
#
# Revision: 2
# Processed by: cddbd v1.4PL0 Copyright (c) Steve Scherf et al.
# Submitted via: ExactAudioCopy v0.90a11
#
DISCID=bb0cfe0f
DTITLE=Various (Not Original Artists) - Drew's Famous Halloween Party 
DTITLE=Music (Vol. 2)
DYEAR=1900
DGENRE=
TTITLE0=I'm Your Boogie Man
TTITLE1=Boogie Oogie Oogie
TTITLE2=Superstition
TTITLE3=Werewolves Of London
TTITLE4=Witchy Woman
TTITLE5=I Put A Spell On You
TTITLE6=Le Freak
TTITLE7=Tragedy
TTITLE8=Addams Groove
TTITLE9=Love Potion #9
TTITLE10=They're Coming To Take Me Away Ha Ha
TTITLE11=Bad Bad Leroy Brown
TTITLE12=Kung Fu Fighting
TTITLE13=Thriller
TTITLE14=The Devil Went Down To Georgia
EXTD=
EXTT0=
EXTT1=
EXTT2=
EXTT3=
EXTT4=
EXTT5=
EXTT6=
EXTT7=
EXTT8=
EXTT9=
EXTT10=
EXTT11=
EXTT12=
EXTT13=
EXTT14=
PLAYORDER=
